<svg xmlns="http://www.w3.org/2000/svg" width="100" height="100" viewBox="0 0 256 256"><path stroke-miterlimit="10" d="M0 256V0h256v256z" font-family="none" font-size="none" font-weight="none" style="mix-blend-mode:normal" text-anchor="none"/><path fill="#fff" stroke-miterlimit="10" d="M14 4C8.489 4 4 8.489 4 14v22c0 5.511 4.489 10 10 10h22c5.511 0 10-4.489 10-10V14c0-5.511-4.489-10-10-10zm0 2h22c4.43 0 8 3.57 8 8v22c0 4.43-3.57 8-8 8H14c-4.43 0-8-3.57-8-8V14c0-4.43 3.57-8 8-8zm-1 9c-1.645 0-3 1.355-3 3v14c0 1.645 1.355 3 3 3h24c1.645 0 3-1.355 3-3V18c0-1.645-1.355-3-3-3zm.414 2h23.17l-8.906 8.893a3.786 3.786 0 0 1-5.373-.002zM38 18.412v13.176L31.402 25zm-26 .002L18.586 25 12 31.586zm17.988 7.998L36.586 33H13.414L20 26.414l.89.89c2.256 2.257 5.943 2.258 8.2.005z" font-family="none" font-size="none" font-weight="none" style="mix-blend-mode:normal" text-anchor="none" transform="scale(5.12)"/></svg>