<svg xmlns="http://www.w3.org/2000/svg" width="625" height="77" fill="none"><mask id="a" width="624" height="76" x=".4" y=".64" fill="#000" maskUnits="userSpaceOnUse"><path fill="#fff" d="M.4.64h624v76H.4z"/><path d="M39.2 2.72c6.408 0 11.844.972 16.308 2.916s7.848 4.788 10.152 8.532c2.304 3.744 3.456 8.316 3.456 13.716 0 5.4-1.152 9.972-3.456 13.716-2.304 3.744-5.688 6.588-10.152 8.532-4.464 1.944-9.9 2.916-16.308 2.916H26.564V74H1.4V2.72h37.8Zm-4.104 32.508c2.736 0 4.896-.576 6.48-1.728 1.584-1.224 2.376-3.096 2.376-5.616 0-2.52-.792-4.356-2.376-5.508-1.584-1.224-3.744-1.836-6.48-1.836h-8.532v14.688h8.532ZM111.674 1.64c7.56 0 14.04 1.44 19.44 4.32 5.4 2.88 9.54 7.056 12.42 12.528 2.88 5.472 4.32 12.096 4.32 19.872s-1.44 14.4-4.32 19.872c-2.88 5.472-7.02 9.648-12.42 12.528-5.4 2.88-11.88 4.32-19.44 4.32-7.488 0-13.968-1.44-19.44-4.32-5.4-2.88-9.576-7.056-12.528-12.528-2.88-5.472-4.32-12.096-4.32-19.872s1.44-14.4 4.32-19.872c2.952-5.472 7.128-9.648 12.528-12.528 5.472-2.88 11.952-4.32 19.44-4.32Zm0 18.9c-2.448 0-4.464.648-6.048 1.944-1.512 1.224-2.664 3.132-3.456 5.724-.72 2.592-1.08 5.976-1.08 10.152 0 4.104.36 7.488 1.08 10.152.792 2.592 1.944 4.536 3.456 5.832 1.584 1.224 3.6 1.836 6.048 1.836s4.428-.612 5.94-1.836c1.584-1.296 2.736-3.24 3.456-5.832.72-2.664 1.08-6.048 1.08-10.152 0-4.176-.36-7.56-1.08-10.152-.72-2.592-1.872-4.5-3.456-5.724-1.512-1.296-3.492-1.944-5.94-1.944ZM194.998 2.72c9.288 0 16.416 2.088 21.384 6.264 4.968 4.104 7.452 9.576 7.452 16.416 0 7.848-2.448 13.752-7.344 17.712-4.824 3.96-11.88 5.94-21.168 5.94l-2.484 1.296h-11.88V74h-24.624V2.72h38.664Zm-4.32 31.104c2.664 0 4.644-.468 5.94-1.404 1.368-1.008 2.052-2.736 2.052-5.184 0-2.376-.684-4.068-2.052-5.076-1.296-1.008-3.276-1.512-5.94-1.512h-9.72v13.176h9.72Zm14.904 5.292L227.83 74h-27.324l-16.632-31.212 21.708-3.672ZM299.01 2.72v18.468h-22.248V74h-25.164V21.188h-22.356V2.72h69.768ZM365.598 21.188h-33.913v9.936h27.432v18.468h-27.432V74h-25.164V2.72h59.077v18.468ZM406.881 1.64c7.56 0 14.04 1.44 19.44 4.32 5.4 2.88 9.54 7.056 12.42 12.528 2.88 5.472 4.32 12.096 4.32 19.872s-1.44 14.4-4.32 19.872c-2.88 5.472-7.02 9.648-12.42 12.528-5.4 2.88-11.88 4.32-19.44 4.32-7.488 0-13.968-1.44-19.44-4.32-5.4-2.88-9.576-7.056-12.528-12.528-2.88-5.472-4.32-12.096-4.32-19.872s1.44-14.4 4.32-19.872c2.952-5.472 7.128-9.648 12.528-12.528 5.472-2.88 11.952-4.32 19.44-4.32Zm0 18.9c-2.448 0-4.464.648-6.048 1.944-1.512 1.224-2.664 3.132-3.456 5.724-.72 2.592-1.08 5.976-1.08 10.152 0 4.104.36 7.488 1.08 10.152.792 2.592 1.944 4.536 3.456 5.832 1.584 1.224 3.6 1.836 6.048 1.836s4.428-.612 5.94-1.836c1.584-1.296 2.736-3.24 3.456-5.832.72-2.664 1.08-6.048 1.08-10.152 0-4.176-.36-7.56-1.08-10.152-.72-2.592-1.872-4.5-3.456-5.724-1.512-1.296-3.492-1.944-5.94-1.944ZM476.705 55.532h32.292V74h-57.456V2.72h25.164v52.812ZM542.096 2.72V74h-25.164V2.72h25.164ZM586.916 1.64c7.56 0 14.04 1.44 19.44 4.32 5.4 2.88 9.54 7.056 12.42 12.528 2.88 5.472 4.32 12.096 4.32 19.872s-1.44 14.4-4.32 19.872c-2.88 5.472-7.02 9.648-12.42 12.528-5.4 2.88-11.88 4.32-19.44 4.32-7.488 0-13.968-1.44-19.44-4.32-5.4-2.88-9.576-7.056-12.528-12.528-2.88-5.472-4.32-12.096-4.32-19.872s1.44-14.4 4.32-19.872c2.952-5.472 7.128-9.648 12.528-12.528 5.472-2.88 11.952-4.32 19.44-4.32Zm0 18.9c-2.448 0-4.464.648-6.048 1.944-1.512 1.224-2.664 3.132-3.456 5.724-.72 2.592-1.08 5.976-1.08 10.152 0 4.104.36 7.488 1.08 10.152.792 2.592 1.944 4.536 3.456 5.832 1.584 1.224 3.6 1.836 6.048 1.836s4.428-.612 5.94-1.836c1.584-1.296 2.736-3.24 3.456-5.832.72-2.664 1.08-6.048 1.08-10.152 0-4.176-.36-7.56-1.08-10.152-.72-2.592-1.872-4.5-3.456-5.724-1.512-1.296-3.492-1.944-5.94-1.944Z"/></mask><path stroke="#fff" stroke-opacity=".3" stroke-width="2" d="M39.2 2.72c6.408 0 11.844.972 16.308 2.916s7.848 4.788 10.152 8.532c2.304 3.744 3.456 8.316 3.456 13.716 0 5.4-1.152 9.972-3.456 13.716-2.304 3.744-5.688 6.588-10.152 8.532-4.464 1.944-9.9 2.916-16.308 2.916H26.564V74H1.4V2.72h37.8Zm-4.104 32.508c2.736 0 4.896-.576 6.48-1.728 1.584-1.224 2.376-3.096 2.376-5.616 0-2.52-.792-4.356-2.376-5.508-1.584-1.224-3.744-1.836-6.48-1.836h-8.532v14.688h8.532ZM111.674 1.64c7.56 0 14.04 1.44 19.44 4.32 5.4 2.88 9.54 7.056 12.42 12.528 2.88 5.472 4.32 12.096 4.32 19.872s-1.44 14.4-4.32 19.872c-2.88 5.472-7.02 9.648-12.42 12.528-5.4 2.88-11.88 4.32-19.44 4.32-7.488 0-13.968-1.44-19.44-4.32-5.4-2.88-9.576-7.056-12.528-12.528-2.88-5.472-4.32-12.096-4.32-19.872s1.44-14.4 4.32-19.872c2.952-5.472 7.128-9.648 12.528-12.528 5.472-2.88 11.952-4.32 19.44-4.32Zm0 18.9c-2.448 0-4.464.648-6.048 1.944-1.512 1.224-2.664 3.132-3.456 5.724-.72 2.592-1.08 5.976-1.08 10.152 0 4.104.36 7.488 1.08 10.152.792 2.592 1.944 4.536 3.456 5.832 1.584 1.224 3.6 1.836 6.048 1.836s4.428-.612 5.94-1.836c1.584-1.296 2.736-3.24 3.456-5.832.72-2.664 1.08-6.048 1.08-10.152 0-4.176-.36-7.56-1.08-10.152-.72-2.592-1.872-4.5-3.456-5.724-1.512-1.296-3.492-1.944-5.94-1.944ZM194.998 2.72c9.288 0 16.416 2.088 21.384 6.264 4.968 4.104 7.452 9.576 7.452 16.416 0 7.848-2.448 13.752-7.344 17.712-4.824 3.96-11.88 5.94-21.168 5.94l-2.484 1.296h-11.88V74h-24.624V2.72h38.664Zm-4.32 31.104c2.664 0 4.644-.468 5.94-1.404 1.368-1.008 2.052-2.736 2.052-5.184 0-2.376-.684-4.068-2.052-5.076-1.296-1.008-3.276-1.512-5.94-1.512h-9.72v13.176h9.72Zm14.904 5.292L227.83 74h-27.324l-16.632-31.212 21.708-3.672ZM299.01 2.72v18.468h-22.248V74h-25.164V21.188h-22.356V2.72h69.768ZM365.598 21.188h-33.913v9.936h27.432v18.468h-27.432V74h-25.164V2.72h59.077v18.468ZM406.881 1.64c7.56 0 14.04 1.44 19.44 4.32 5.4 2.88 9.54 7.056 12.42 12.528 2.88 5.472 4.32 12.096 4.32 19.872s-1.44 14.4-4.32 19.872c-2.88 5.472-7.02 9.648-12.42 12.528-5.4 2.88-11.88 4.32-19.44 4.32-7.488 0-13.968-1.44-19.44-4.32-5.4-2.88-9.576-7.056-12.528-12.528-2.88-5.472-4.32-12.096-4.32-19.872s1.44-14.4 4.32-19.872c2.952-5.472 7.128-9.648 12.528-12.528 5.472-2.88 11.952-4.32 19.44-4.32Zm0 18.9c-2.448 0-4.464.648-6.048 1.944-1.512 1.224-2.664 3.132-3.456 5.724-.72 2.592-1.08 5.976-1.08 10.152 0 4.104.36 7.488 1.08 10.152.792 2.592 1.944 4.536 3.456 5.832 1.584 1.224 3.6 1.836 6.048 1.836s4.428-.612 5.94-1.836c1.584-1.296 2.736-3.24 3.456-5.832.72-2.664 1.08-6.048 1.08-10.152 0-4.176-.36-7.56-1.08-10.152-.72-2.592-1.872-4.5-3.456-5.724-1.512-1.296-3.492-1.944-5.94-1.944ZM476.705 55.532h32.292V74h-57.456V2.72h25.164v52.812ZM542.096 2.72V74h-25.164V2.72h25.164ZM586.916 1.64c7.56 0 14.04 1.44 19.44 4.32 5.4 2.88 9.54 7.056 12.42 12.528 2.88 5.472 4.32 12.096 4.32 19.872s-1.44 14.4-4.32 19.872c-2.88 5.472-7.02 9.648-12.42 12.528-5.4 2.88-11.88 4.32-19.44 4.32-7.488 0-13.968-1.44-19.44-4.32-5.4-2.88-9.576-7.056-12.528-12.528-2.88-5.472-4.32-12.096-4.32-19.872s1.44-14.4 4.32-19.872c2.952-5.472 7.128-9.648 12.528-12.528 5.472-2.88 11.952-4.32 19.44-4.32Zm0 18.9c-2.448 0-4.464.648-6.048 1.944-1.512 1.224-2.664 3.132-3.456 5.724-.72 2.592-1.08 5.976-1.08 10.152 0 4.104.36 7.488 1.08 10.152.792 2.592 1.944 4.536 3.456 5.832 1.584 1.224 3.6 1.836 6.048 1.836s4.428-.612 5.94-1.836c1.584-1.296 2.736-3.24 3.456-5.832.72-2.664 1.08-6.048 1.08-10.152 0-4.176-.36-7.56-1.08-10.152-.72-2.592-1.872-4.5-3.456-5.724-1.512-1.296-3.492-1.944-5.94-1.944Z" mask="url(#a)"/></svg>