<svg xmlns="http://www.w3.org/2000/svg" width="540" height="77" fill="none"><mask id="a" width="540" height="76" x="-.217" y=".64" fill="#000" maskUnits="userSpaceOnUse"><path fill="#fff" d="M-.217.64h540v76h-540z"/><path d="M38.611 1.64c6.84 0 12.96.864 18.36 2.592 5.472 1.656 10.296 4.176 14.472 7.56l-10.152 16.2A49.453 49.453 0 0 0 50.6 22.268c-3.672-1.44-7.668-2.16-11.988-2.16-1.872 0-3.384.144-4.536.432-1.08.288-1.872.684-2.376 1.188a2.58 2.58 0 0 0-.648 1.728c0 .864.648 1.512 1.944 1.944 1.368.432 3.06.9 5.076 1.404l9.828 2.268c7.272 1.656 12.744 4.104 16.416 7.344 3.744 3.24 5.616 7.74 5.616 13.5s-1.404 10.512-4.212 14.256c-2.808 3.672-6.624 6.408-11.448 8.208-4.752 1.8-10.152 2.7-16.2 2.7-4.536 0-9.072-.396-13.608-1.188-4.536-.864-8.748-2.088-12.636-3.672-3.888-1.656-7.236-3.636-10.044-5.94l9.936-16.524c2.088 1.656 4.608 3.168 7.56 4.536a57.46 57.46 0 0 0 9.18 3.132c3.168.792 6.12 1.188 8.856 1.188 1.728 0 3.096-.144 4.104-.432 1.008-.288 1.692-.648 2.052-1.08a2.58 2.58 0 0 0 .648-1.728c0-1.008-.432-1.764-1.296-2.268-.792-.504-2.268-1.008-4.428-1.512l-10.8-2.376a66.459 66.459 0 0 1-10.908-3.456c-3.456-1.44-6.264-3.528-8.424-6.264-2.16-2.808-3.24-6.588-3.24-11.34 0-4.896 1.296-9.18 3.888-12.852 2.664-3.672 6.48-6.516 11.448-8.532C25.4 2.684 31.483 1.64 38.611 1.64ZM77.43 74V2.72h59.184v18.468h-34.02v8.856h27.432v17.064h-27.432v8.424h35.316V74H77.43ZM183.7 2.72c9.288 0 16.416 2.088 21.384 6.264 4.968 4.104 7.452 9.576 7.452 16.416 0 7.848-2.448 13.752-7.344 17.712-4.824 3.96-11.88 5.94-21.168 5.94l-2.484 1.296h-11.88V74h-24.624V2.72H183.7Zm-4.32 31.104c2.664 0 4.644-.468 5.94-1.404 1.368-1.008 2.052-2.736 2.052-5.184 0-2.376-.684-4.068-2.052-5.076-1.296-1.008-3.276-1.512-5.94-1.512h-9.72v13.176h9.72Zm14.904 5.292L216.532 74h-27.324l-16.632-31.212 21.708-3.672ZM293.004 2.72 268.92 74h-29.916L214.92 2.72h26.244l9.828 38.988 3.456 13.932 3.24-13.716L267.732 2.72h25.272ZM322.708 2.72V74h-25.164V2.72h25.164ZM400.469 52.184c-1.296 5.544-3.528 10.008-6.696 13.392-3.096 3.384-6.876 5.832-11.34 7.344-4.464 1.44-9.432 2.16-14.904 2.16-7.488 0-13.968-1.44-19.44-4.32-5.4-2.88-9.576-7.056-12.528-12.528-2.88-5.472-4.32-12.096-4.32-19.872s1.44-14.4 4.32-19.872c2.952-5.472 7.128-9.648 12.528-12.528 5.472-2.88 11.952-4.32 19.44-4.32 5.256 0 10.152.756 14.688 2.268 4.536 1.44 8.352 3.744 11.448 6.912 3.168 3.168 5.256 7.308 6.264 12.42l-21.6 8.424c-.576-4.68-1.764-7.704-3.564-9.072-1.728-1.368-3.924-2.052-6.588-2.052-2.448 0-4.536.648-6.264 1.944-1.656 1.224-2.916 3.168-3.78 5.832-.792 2.592-1.188 5.94-1.188 10.044 0 4.032.36 7.38 1.08 10.044.792 2.664 2.052 4.644 3.78 5.94 1.728 1.224 4.032 1.836 6.912 1.836 2.592 0 4.716-.756 6.372-2.268 1.656-1.584 2.7-4.068 3.132-7.452l22.248 5.724ZM406.598 74V2.72h59.184v18.468h-34.02v8.856h27.432v17.064h-27.432v8.424h35.316V74h-60.48ZM505.416 1.64c6.84 0 12.96.864 18.36 2.592 5.472 1.656 10.296 4.176 14.472 7.56l-10.152 16.2a49.453 49.453 0 0 0-10.692-5.724c-3.672-1.44-7.668-2.16-11.988-2.16-1.872 0-3.384.144-4.536.432-1.08.288-1.872.684-2.376 1.188a2.58 2.58 0 0 0-.648 1.728c0 .864.648 1.512 1.944 1.944 1.368.432 3.06.9 5.076 1.404l9.828 2.268c7.272 1.656 12.744 4.104 16.416 7.344 3.744 3.24 5.616 7.74 5.616 13.5s-1.404 10.512-4.212 14.256c-2.808 3.672-6.624 6.408-11.448 8.208-4.752 1.8-10.152 2.7-16.2 2.7-4.536 0-9.072-.396-13.608-1.188-4.536-.864-8.748-2.088-12.636-3.672-3.888-1.656-7.236-3.636-10.044-5.94l9.936-16.524c2.088 1.656 4.608 3.168 7.56 4.536a57.46 57.46 0 0 0 9.18 3.132c3.168.792 6.12 1.188 8.856 1.188 1.728 0 3.096-.144 4.104-.432 1.008-.288 1.692-.648 2.052-1.08a2.58 2.58 0 0 0 .648-1.728c0-1.008-.432-1.764-1.296-2.268-.792-.504-2.268-1.008-4.428-1.512l-10.8-2.376a66.459 66.459 0 0 1-10.908-3.456c-3.456-1.44-6.264-3.528-8.424-6.264-2.16-2.808-3.24-6.588-3.24-11.34 0-4.896 1.296-9.18 3.888-12.852 2.664-3.672 6.48-6.516 11.448-8.532 5.04-2.088 11.124-3.132 18.252-3.132Z"/></mask><path stroke="#fff" stroke-opacity=".3" stroke-width="2" d="M38.611 1.64c6.84 0 12.96.864 18.36 2.592 5.472 1.656 10.296 4.176 14.472 7.56l-10.152 16.2A49.453 49.453 0 0 0 50.6 22.268c-3.672-1.44-7.668-2.16-11.988-2.16-1.872 0-3.384.144-4.536.432-1.08.288-1.872.684-2.376 1.188a2.58 2.58 0 0 0-.648 1.728c0 .864.648 1.512 1.944 1.944 1.368.432 3.06.9 5.076 1.404l9.828 2.268c7.272 1.656 12.744 4.104 16.416 7.344 3.744 3.24 5.616 7.74 5.616 13.5s-1.404 10.512-4.212 14.256c-2.808 3.672-6.624 6.408-11.448 8.208-4.752 1.8-10.152 2.7-16.2 2.7-4.536 0-9.072-.396-13.608-1.188-4.536-.864-8.748-2.088-12.636-3.672-3.888-1.656-7.236-3.636-10.044-5.94l9.936-16.524c2.088 1.656 4.608 3.168 7.56 4.536a57.46 57.46 0 0 0 9.18 3.132c3.168.792 6.12 1.188 8.856 1.188 1.728 0 3.096-.144 4.104-.432 1.008-.288 1.692-.648 2.052-1.08a2.58 2.58 0 0 0 .648-1.728c0-1.008-.432-1.764-1.296-2.268-.792-.504-2.268-1.008-4.428-1.512l-10.8-2.376a66.459 66.459 0 0 1-10.908-3.456c-3.456-1.44-6.264-3.528-8.424-6.264-2.16-2.808-3.24-6.588-3.24-11.34 0-4.896 1.296-9.18 3.888-12.852 2.664-3.672 6.48-6.516 11.448-8.532C25.4 2.684 31.483 1.64 38.611 1.64ZM77.43 74V2.72h59.184v18.468h-34.02v8.856h27.432v17.064h-27.432v8.424h35.316V74H77.43ZM183.7 2.72c9.288 0 16.416 2.088 21.384 6.264 4.968 4.104 7.452 9.576 7.452 16.416 0 7.848-2.448 13.752-7.344 17.712-4.824 3.96-11.88 5.94-21.168 5.94l-2.484 1.296h-11.88V74h-24.624V2.72H183.7Zm-4.32 31.104c2.664 0 4.644-.468 5.94-1.404 1.368-1.008 2.052-2.736 2.052-5.184 0-2.376-.684-4.068-2.052-5.076-1.296-1.008-3.276-1.512-5.94-1.512h-9.72v13.176h9.72Zm14.904 5.292L216.532 74h-27.324l-16.632-31.212 21.708-3.672ZM293.004 2.72 268.92 74h-29.916L214.92 2.72h26.244l9.828 38.988 3.456 13.932 3.24-13.716L267.732 2.72h25.272ZM322.708 2.72V74h-25.164V2.72h25.164ZM400.469 52.184c-1.296 5.544-3.528 10.008-6.696 13.392-3.096 3.384-6.876 5.832-11.34 7.344-4.464 1.44-9.432 2.16-14.904 2.16-7.488 0-13.968-1.44-19.44-4.32-5.4-2.88-9.576-7.056-12.528-12.528-2.88-5.472-4.32-12.096-4.32-19.872s1.44-14.4 4.32-19.872c2.952-5.472 7.128-9.648 12.528-12.528 5.472-2.88 11.952-4.32 19.44-4.32 5.256 0 10.152.756 14.688 2.268 4.536 1.44 8.352 3.744 11.448 6.912 3.168 3.168 5.256 7.308 6.264 12.42l-21.6 8.424c-.576-4.68-1.764-7.704-3.564-9.072-1.728-1.368-3.924-2.052-6.588-2.052-2.448 0-4.536.648-6.264 1.944-1.656 1.224-2.916 3.168-3.78 5.832-.792 2.592-1.188 5.94-1.188 10.044 0 4.032.36 7.38 1.08 10.044.792 2.664 2.052 4.644 3.78 5.94 1.728 1.224 4.032 1.836 6.912 1.836 2.592 0 4.716-.756 6.372-2.268 1.656-1.584 2.7-4.068 3.132-7.452l22.248 5.724ZM406.598 74V2.72h59.184v18.468h-34.02v8.856h27.432v17.064h-27.432v8.424h35.316V74h-60.48ZM505.416 1.64c6.84 0 12.96.864 18.36 2.592 5.472 1.656 10.296 4.176 14.472 7.56l-10.152 16.2a49.453 49.453 0 0 0-10.692-5.724c-3.672-1.44-7.668-2.16-11.988-2.16-1.872 0-3.384.144-4.536.432-1.08.288-1.872.684-2.376 1.188a2.58 2.58 0 0 0-.648 1.728c0 .864.648 1.512 1.944 1.944 1.368.432 3.06.9 5.076 1.404l9.828 2.268c7.272 1.656 12.744 4.104 16.416 7.344 3.744 3.24 5.616 7.74 5.616 13.5s-1.404 10.512-4.212 14.256c-2.808 3.672-6.624 6.408-11.448 8.208-4.752 1.8-10.152 2.7-16.2 2.7-4.536 0-9.072-.396-13.608-1.188-4.536-.864-8.748-2.088-12.636-3.672-3.888-1.656-7.236-3.636-10.044-5.94l9.936-16.524c2.088 1.656 4.608 3.168 7.56 4.536a57.46 57.46 0 0 0 9.18 3.132c3.168.792 6.12 1.188 8.856 1.188 1.728 0 3.096-.144 4.104-.432 1.008-.288 1.692-.648 2.052-1.08a2.58 2.58 0 0 0 .648-1.728c0-1.008-.432-1.764-1.296-2.268-.792-.504-2.268-1.008-4.428-1.512l-10.8-2.376a66.459 66.459 0 0 1-10.908-3.456c-3.456-1.44-6.264-3.528-8.424-6.264-2.16-2.808-3.24-6.588-3.24-11.34 0-4.896 1.296-9.18 3.888-12.852 2.664-3.672 6.48-6.516 11.448-8.532 5.04-2.088 11.124-3.132 18.252-3.132Z" mask="url(#a)"/></svg>