<svg xmlns="http://www.w3.org/2000/svg" width="845" height="77" fill="none"><mask id="a" width="845" height="77" x="0" y="0" fill="#000" maskUnits="userSpaceOnUse"><path fill="#fff" d="M0 0h845v77H0z"/><path d="M72.06 2.1v18.81H49.4V74.7H23.77V20.91H1V2.1h71.06ZM79.71 74.7V2.1h60.28v18.81h-34.65v9.02h27.94v17.38h-27.94v8.58h35.97V74.7h-61.6ZM180.358 1c6.966 0 13.2.88 18.7 2.64 5.573 1.687 10.486 4.253 14.74 7.7l-10.34 16.5a50.386 50.386 0 0 0-10.89-5.83c-3.74-1.467-7.81-2.2-12.21-2.2-1.907 0-3.447.147-4.62.44-1.1.293-1.907.697-2.42 1.21-.44.513-.66 1.1-.66 1.76 0 .88.66 1.54 1.98 1.98 1.393.44 3.116.917 5.17 1.43l10.01 2.31c7.406 1.687 12.98 4.18 16.72 7.48 3.813 3.3 5.72 7.883 5.72 13.75s-1.43 10.707-4.29 14.52c-2.86 3.74-6.747 6.527-11.66 8.36-4.84 1.833-10.34 2.75-16.5 2.75-4.62 0-9.24-.403-13.86-1.21-4.62-.88-8.91-2.127-12.87-3.74-3.96-1.687-7.37-3.703-10.23-6.05l10.12-16.83c2.126 1.687 4.693 3.227 7.7 4.62a58.494 58.494 0 0 0 9.35 3.19c3.226.807 6.233 1.21 9.02 1.21 1.76 0 3.153-.147 4.18-.44 1.026-.293 1.723-.66 2.09-1.1.44-.513.66-1.1.66-1.76 0-1.027-.44-1.797-1.32-2.31-.807-.513-2.31-1.027-4.51-1.54l-11-2.42a67.676 67.676 0 0 1-11.11-3.52c-3.52-1.467-6.38-3.593-8.58-6.38-2.2-2.86-3.3-6.71-3.3-11.55 0-4.987 1.32-9.35 3.96-13.09 2.713-3.74 6.6-6.637 11.66-8.69 5.133-2.127 11.33-3.19 18.59-3.19ZM287.656 2.1v18.81h-22.66V74.7h-25.63V20.91h-22.77V2.1h71.06ZM320.936 2.1v72.6h-25.63V2.1h25.63ZM425.217 2.1v72.6h-22.33V49.51l.33-24.42h-.33l-14.08 49.61h-20.46l-13.86-49.61h-.44l.33 24.42V74.7h-22.44V2.1h35.86l8.36 32.23 3.19 13.53h.22l3.19-13.53 8.36-32.23h34.1ZM470.893 1c7.7 0 14.3 1.467 19.8 4.4 5.5 2.933 9.717 7.187 12.65 12.76 2.934 5.573 4.4 12.32 4.4 20.24 0 7.92-1.466 14.667-4.4 20.24-2.933 5.573-7.15 9.827-12.65 12.76s-12.1 4.4-19.8 4.4c-7.626 0-14.226-1.467-19.8-4.4-5.5-2.933-9.753-7.187-12.76-12.76-2.933-5.573-4.4-12.32-4.4-20.24 0-7.92 1.467-14.667 4.4-20.24 3.007-5.573 7.26-9.827 12.76-12.76 5.574-2.933 12.174-4.4 19.8-4.4Zm0 19.25c-2.493 0-4.546.66-6.16 1.98-1.54 1.247-2.713 3.19-3.52 5.83-.733 2.64-1.1 6.087-1.1 10.34 0 4.18.367 7.627 1.1 10.34.807 2.64 1.98 4.62 3.52 5.94 1.614 1.247 3.667 1.87 6.16 1.87 2.494 0 4.51-.623 6.05-1.87 1.614-1.32 2.787-3.3 3.52-5.94.734-2.713 1.1-6.16 1.1-10.34 0-4.253-.366-7.7-1.1-10.34-.733-2.64-1.906-4.583-3.52-5.83-1.54-1.32-3.556-1.98-6.05-1.98ZM587.44 2.1v72.6h-27.72l-17.38-33-3.96-8.91h-.22l.44 14.96V74.7h-22.22V2.1h27.72l17.38 33.11 3.96 8.8h.22l-.44-14.96V2.1h22.22ZM624.08 2.1v72.6h-25.63V2.1h25.63ZM706.471 74.7h-26.18l-3.3-13.86h-19.58l-3.41 13.86h-25.52l23.54-72.6h30.8l23.65 72.6Zm-45.21-29.81h11.99l-5.94-25.19-6.05 25.19ZM736.551 55.89h32.89V74.7h-58.52V2.1h25.63v53.79ZM809.313 1c6.966 0 13.2.88 18.7 2.64 5.573 1.687 10.486 4.253 14.74 7.7l-10.34 16.5a50.386 50.386 0 0 0-10.89-5.83c-3.74-1.467-7.81-2.2-12.21-2.2-1.907 0-3.447.147-4.62.44-1.1.293-1.907.697-2.42 1.21-.44.513-.66 1.1-.66 1.76 0 .88.66 1.54 1.98 1.98 1.393.44 3.116.917 5.17 1.43l10.01 2.31c7.406 1.687 12.98 4.18 16.72 7.48 3.813 3.3 5.72 7.883 5.72 13.75s-1.43 10.707-4.29 14.52c-2.86 3.74-6.747 6.527-11.66 8.36-4.84 1.833-10.34 2.75-16.5 2.75-4.62 0-9.24-.403-13.86-1.21-4.62-.88-8.91-2.127-12.87-3.74-3.96-1.687-7.37-3.703-10.23-6.05l10.12-16.83c2.126 1.687 4.693 3.227 7.7 4.62a58.494 58.494 0 0 0 9.35 3.19c3.226.807 6.233 1.21 9.02 1.21 1.76 0 3.153-.147 4.18-.44 1.026-.293 1.723-.66 2.09-1.1.44-.513.66-1.1.66-1.76 0-1.027-.44-1.797-1.32-2.31-.807-.513-2.31-1.027-4.51-1.54l-11-2.42a67.676 67.676 0 0 1-11.11-3.52c-3.52-1.467-6.38-3.593-8.58-6.38-2.2-2.86-3.3-6.71-3.3-11.55 0-4.987 1.32-9.35 3.96-13.09 2.713-3.74 6.6-6.637 11.66-8.69 5.133-2.127 11.33-3.19 18.59-3.19Z"/></mask><path stroke="#fff" stroke-opacity=".3" stroke-width="2" d="M72.06 2.1v18.81H49.4V74.7H23.77V20.91H1V2.1h71.06ZM79.71 74.7V2.1h60.28v18.81h-34.65v9.02h27.94v17.38h-27.94v8.58h35.97V74.7h-61.6ZM180.358 1c6.966 0 13.2.88 18.7 2.64 5.573 1.687 10.486 4.253 14.74 7.7l-10.34 16.5a50.386 50.386 0 0 0-10.89-5.83c-3.74-1.467-7.81-2.2-12.21-2.2-1.907 0-3.447.147-4.62.44-1.1.293-1.907.697-2.42 1.21-.44.513-.66 1.1-.66 1.76 0 .88.66 1.54 1.98 1.98 1.393.44 3.116.917 5.17 1.43l10.01 2.31c7.406 1.687 12.98 4.18 16.72 7.48 3.813 3.3 5.72 7.883 5.72 13.75s-1.43 10.707-4.29 14.52c-2.86 3.74-6.747 6.527-11.66 8.36-4.84 1.833-10.34 2.75-16.5 2.75-4.62 0-9.24-.403-13.86-1.21-4.62-.88-8.91-2.127-12.87-3.74-3.96-1.687-7.37-3.703-10.23-6.05l10.12-16.83c2.126 1.687 4.693 3.227 7.7 4.62a58.494 58.494 0 0 0 9.35 3.19c3.226.807 6.233 1.21 9.02 1.21 1.76 0 3.153-.147 4.18-.44 1.026-.293 1.723-.66 2.09-1.1.44-.513.66-1.1.66-1.76 0-1.027-.44-1.797-1.32-2.31-.807-.513-2.31-1.027-4.51-1.54l-11-2.42a67.676 67.676 0 0 1-11.11-3.52c-3.52-1.467-6.38-3.593-8.58-6.38-2.2-2.86-3.3-6.71-3.3-11.55 0-4.987 1.32-9.35 3.96-13.09 2.713-3.74 6.6-6.637 11.66-8.69 5.133-2.127 11.33-3.19 18.59-3.19ZM287.656 2.1v18.81h-22.66V74.7h-25.63V20.91h-22.77V2.1h71.06ZM320.936 2.1v72.6h-25.63V2.1h25.63ZM425.217 2.1v72.6h-22.33V49.51l.33-24.42h-.33l-14.08 49.61h-20.46l-13.86-49.61h-.44l.33 24.42V74.7h-22.44V2.1h35.86l8.36 32.23 3.19 13.53h.22l3.19-13.53 8.36-32.23h34.1ZM470.893 1c7.7 0 14.3 1.467 19.8 4.4 5.5 2.933 9.717 7.187 12.65 12.76 2.934 5.573 4.4 12.32 4.4 20.24 0 7.92-1.466 14.667-4.4 20.24-2.933 5.573-7.15 9.827-12.65 12.76s-12.1 4.4-19.8 4.4c-7.626 0-14.226-1.467-19.8-4.4-5.5-2.933-9.753-7.187-12.76-12.76-2.933-5.573-4.4-12.32-4.4-20.24 0-7.92 1.467-14.667 4.4-20.24 3.007-5.573 7.26-9.827 12.76-12.76 5.574-2.933 12.174-4.4 19.8-4.4Zm0 19.25c-2.493 0-4.546.66-6.16 1.98-1.54 1.247-2.713 3.19-3.52 5.83-.733 2.64-1.1 6.087-1.1 10.34 0 4.18.367 7.627 1.1 10.34.807 2.64 1.98 4.62 3.52 5.94 1.614 1.247 3.667 1.87 6.16 1.87 2.494 0 4.51-.623 6.05-1.87 1.614-1.32 2.787-3.3 3.52-5.94.734-2.713 1.1-6.16 1.1-10.34 0-4.253-.366-7.7-1.1-10.34-.733-2.64-1.906-4.583-3.52-5.83-1.54-1.32-3.556-1.98-6.05-1.98ZM587.44 2.1v72.6h-27.72l-17.38-33-3.96-8.91h-.22l.44 14.96V74.7h-22.22V2.1h27.72l17.38 33.11 3.96 8.8h.22l-.44-14.96V2.1h22.22ZM624.08 2.1v72.6h-25.63V2.1h25.63ZM706.471 74.7h-26.18l-3.3-13.86h-19.58l-3.41 13.86h-25.52l23.54-72.6h30.8l23.65 72.6Zm-45.21-29.81h11.99l-5.94-25.19-6.05 25.19ZM736.551 55.89h32.89V74.7h-58.52V2.1h25.63v53.79ZM809.313 1c6.966 0 13.2.88 18.7 2.64 5.573 1.687 10.486 4.253 14.74 7.7l-10.34 16.5a50.386 50.386 0 0 0-10.89-5.83c-3.74-1.467-7.81-2.2-12.21-2.2-1.907 0-3.447.147-4.62.44-1.1.293-1.907.697-2.42 1.21-.44.513-.66 1.1-.66 1.76 0 .88.66 1.54 1.98 1.98 1.393.44 3.116.917 5.17 1.43l10.01 2.31c7.406 1.687 12.98 4.18 16.72 7.48 3.813 3.3 5.72 7.883 5.72 13.75s-1.43 10.707-4.29 14.52c-2.86 3.74-6.747 6.527-11.66 8.36-4.84 1.833-10.34 2.75-16.5 2.75-4.62 0-9.24-.403-13.86-1.21-4.62-.88-8.91-2.127-12.87-3.74-3.96-1.687-7.37-3.703-10.23-6.05l10.12-16.83c2.126 1.687 4.693 3.227 7.7 4.62a58.494 58.494 0 0 0 9.35 3.19c3.226.807 6.233 1.21 9.02 1.21 1.76 0 3.153-.147 4.18-.44 1.026-.293 1.723-.66 2.09-1.1.44-.513.66-1.1.66-1.76 0-1.027-.44-1.797-1.32-2.31-.807-.513-2.31-1.027-4.51-1.54l-11-2.42a67.676 67.676 0 0 1-11.11-3.52c-3.52-1.467-6.38-3.593-8.58-6.38-2.2-2.86-3.3-6.71-3.3-11.55 0-4.987 1.32-9.35 3.96-13.09 2.713-3.74 6.6-6.637 11.66-8.69 5.133-2.127 11.33-3.19 18.59-3.19Z" mask="url(#a)"/></svg>